<svg width="44" height="44" viewBox="0 0 44 44" fill="none" xmlns="http://www.w3.org/2000/svg">
    <path d="M42.985 21.74c.501-.067.914-.49.888-.995-.027-.505-.482-.883-.987-.898-10.496-.312-19.249-8.193-20.657-18.6-.068-.5-.491-.913-.996-.887-.504.027-.882.482-.897.987-.313 10.496-8.193 19.249-18.6 20.657-.5.068-.913.491-.887.996.027.504.482.882.987.897 10.496.313 19.248 8.193 20.656 18.6.068.5.492.913.996.887.505-.026.883-.482.898-.986.312-10.497 8.193-19.25 18.6-20.658z" fill="#E2C7D6"/>
</svg>
