<svg width="543" height="98" viewBox="0 0 543 98" fill="none" xmlns="http://www.w3.org/2000/svg">
    <path d="M0 95.978h25.923V59.456h18.333V42.699H25.923V23.937h22.772v-22.2H0v94.24zM54.847 95.978h50.271v-22.2H80.77v-17.76h17.903V41.268H80.77v-17.33h23.346v-22.2H54.847v94.24zM111.513 95.978h50.271v-22.2h-24.348v-17.76h17.903V41.268h-17.903v-17.33h23.345v-22.2h-49.268v94.24zM168.178 95.978h30.793c25.064 0 34.66-12.89 34.66-47.407 0-33.084-10.026-46.833-36.665-46.833h-28.788v94.24zm25.923-22.2V23.937h4.297c6.732 0 9.166 6.159 9.166 24.634 0 18.905-2.291 25.207-8.736 25.207h-4.727zM281.14 95.978h26.496V62.464L331.84 1.738h-25.923L297.61 37.83h-.286l-8.45-36.092h-31.366l23.632 60.726v33.514zM364.109 97.123c24.205 0 34.516-16.04 34.516-48.695 0-32.082-10.455-47.836-34.516-47.836-24.204 0-34.803 15.754-34.803 47.836 0 33.084 10.599 48.695 34.803 48.695zm0-22.056c-5.586 0-8.164-7.304-8.164-26.64 0-18.618 2.578-25.779 8.164-25.779s8.02 7.161 8.02 25.78c0 19.335-2.434 26.64-8.02 26.64zM437.228 97.123c20.624 0 31.509-10.598 31.509-34.087V1.738h-21.483V62.32c0 8.307-2.721 11.745-7.591 11.745-5.156 0-8.02-3.438-8.02-11.745V1.738h-25.924v61.298c0 23.489 11.029 34.087 31.509 34.087zM477.357 95.978h25.923v-34.23h5.872c5.013 0 7.305 2.148 7.305 7.59v26.64h26.066V69.625c0-8.88-3.294-14.895-13.033-17.187v-.143c9.739-2.864 13.033-10.169 13.033-22.343 0-18.619-9.309-28.214-33.657-28.214h-31.509v94.24zm25.923-48.696V23.937h5.3c5.872 0 8.45 2.721 8.45 11.6 0 8.738-2.722 11.745-8.307 11.745h-5.443z" fill="#fff"/>
</svg>
