<svg width="582" height="97" viewBox="0 0 582 97" fill="none" xmlns="http://www.w3.org/2000/svg">
    <path d="M0 95.386h25.923V58.864h18.333V42.107H25.923V23.345h22.772v-22.2H0v94.24zM54.847 95.386h50.271v-22.2H80.77v-17.76h17.903V40.676H80.77v-17.33h23.345v-22.2H54.847v94.24zM111.513 95.386h50.271v-22.2h-24.348v-17.76h17.903V40.676h-17.903v-17.33h23.345v-22.2h-49.268v94.24zM168.178 95.386h45.831V72.9h-19.764V1.146h-26.067v94.24zM271.494 96.531c9.596 0 15.181-4.296 17.186-13.892h.144c0 6.159-.43 12.03-.573 12.747h20.194v-47.55h-30.793v13.606h8.594v1.29c0 9.309-2.292 13.032-7.305 13.032-6.015 0-8.736-7.017-8.736-26.066 0-19.765 2.864-27.642 9.023-27.642 5.156 0 7.447 4.01 7.447 13.463 0 1.575 0 4.44-.143 7.018h21.34c0-2.148.287-6.015.287-8.88C308.159 11.028 299.708 0 277.652 0c-23.058 0-33.8 15.468-33.8 49.411 0 32.798 9.023 47.12 27.642 47.12zM515.825 95.386h30.792c25.064 0 34.66-12.89 34.66-47.407 0-33.084-10.025-46.833-36.665-46.833h-28.787v94.24zm25.923-22.2v-49.84h4.296c6.732 0 9.167 6.158 9.167 24.633 0 18.906-2.292 25.207-8.737 25.207h-4.726z" fill="#fff"/>
</svg>
