<svg width="30" height="29" viewBox="0 0 30 29" fill="none" xmlns="http://www.w3.org/2000/svg">
    <path d="M15.363 5.577c2.9 0 3.244.01 4.39.063 1.058.048 1.632.226 2.015.374a3.37 3.37 0 0 1 1.249.813c.38.38.615.742.813 1.249.148.382.326.957.373 2.016.053 1.15.064 1.493.064 4.39 0 2.895-.011 3.246-.064 4.389-.047 1.059-.226 1.635-.373 2.018a3.37 3.37 0 0 1-.813 1.249 3.37 3.37 0 0 1-1.249.813c-.383.148-.957.325-2.016.373-1.15.053-1.494.064-4.39.064s-3.246-.011-4.39-.064c-1.058-.048-1.634-.226-2.017-.373a3.37 3.37 0 0 1-1.25-.813 3.37 3.37 0 0 1-.812-1.249c-.148-.384-.326-.96-.374-2.018-.052-1.145-.063-1.489-.063-4.39 0-2.9.01-3.242.063-4.389.048-1.059.226-1.632.374-2.015a3.37 3.37 0 0 1 .813-1.249 3.37 3.37 0 0 1 1.249-.812c.383-.149.959-.326 2.018-.374 1.145-.053 1.489-.063 4.39-.063v-.002zm0-1.957c-2.95 0-3.32.013-4.478.065-1.156.053-1.946.236-2.636.505A5.359 5.359 0 0 0 6.32 5.443a5.286 5.286 0 0 0-1.248 1.924c-.269.69-.453 1.48-.505 2.635-.052 1.159-.065 1.53-.065 4.478 0 2.949.013 3.32.065 4.479.052 1.155.235 1.945.505 2.636.273.726.7 1.383 1.253 1.928a5.336 5.336 0 0 0 1.923 1.251c.688.27 1.477.453 2.633.507 1.159.052 1.53.063 4.48.063s3.317-.011 4.476-.063c1.155-.054 1.945-.235 2.636-.507a5.29 5.29 0 0 0 1.923-1.251c.552-.543.98-1.2 1.253-1.924.268-.69.452-1.48.504-2.636.052-1.158.065-1.53.065-4.478 0-2.949-.014-3.32-.066-4.478-.053-1.156-.235-1.946-.505-2.636a5.317 5.317 0 0 0-1.254-1.924 5.327 5.327 0 0 0-1.923-1.252c-.688-.268-1.479-.453-2.633-.504-1.156-.06-1.527-.07-4.475-.07z" fill="#fff"/>
    <path d="M15.363 8.904a5.578 5.578 0 0 0 0 11.153 5.578 5.578 0 0 0 5.577-5.577 5.578 5.578 0 0 0-5.577-5.576zm0 9.197c-2 0-3.62-1.62-3.62-3.62s1.62-3.62 3.62-3.62 3.62 1.62 3.62 3.62-1.62 3.62-3.62 3.62zM21.16 9.986a1.303 1.303 0 1 0 0-2.606 1.303 1.303 0 0 0 0 2.606z" fill="#fff"/>
</svg>
