<svg width="29" height="29" viewBox="0 0 29 29" fill="none" xmlns="http://www.w3.org/2000/svg">
    <g clip-path="url(#sqihv1i3ha)">
        <path d="M27.15 7.183a9.636 9.636 0 0 1-2.772.76 4.836 4.836 0 0 0 2.122-2.67 9.68 9.68 0 0 1-3.066 1.172 4.828 4.828 0 0 0-8.226 4.402 13.705 13.705 0 0 1-9.95-5.045 4.816 4.816 0 0 0-.653 2.428c0 1.675.851 3.152 2.146 4.018a4.819 4.819 0 0 1-2.186-.604v.06c0 2.34 1.663 4.291 3.873 4.734a4.83 4.83 0 0 1-2.18.083 4.834 4.834 0 0 0 4.51 3.353 9.683 9.683 0 0 1-5.997 2.067 9.71 9.71 0 0 1-1.152-.067 13.667 13.667 0 0 0 7.4 2.168c8.88 0 13.735-7.356 13.735-13.736 0-.209-.004-.417-.013-.624a9.823 9.823 0 0 0 2.41-2.499z" fill="#fff"/>
    </g>
    <defs>
        <clipPath id="sqihv1i3ha">
            <path fill="#fff" d="M0 0h28.961v28.961H0z"/>
        </clipPath>
    </defs>
</svg>
