<svg width="30" height="29" viewBox="0 0 30 29" fill="none" xmlns="http://www.w3.org/2000/svg">
    <g clip-path="url(#zt3kr7hzoa)">
        <path d="M15.441 3.62c-5.997 0-10.86 4.863-10.86 10.86 0 5.445 4.011 9.941 9.237 10.727v-7.849H11.13v-2.854h2.687v-1.9c0-3.145 1.532-4.525 4.146-4.525 1.251 0 1.914.093 2.227.135v2.492h-1.783c-1.11 0-1.497 1.052-1.497 2.238v1.56h3.252l-.44 2.854H16.91v7.872c5.3-.72 9.39-5.252 9.39-10.75 0-5.997-4.862-10.86-10.86-10.86z" fill="#fff"/>
    </g>
    <defs>
        <clipPath id="zt3kr7hzoa">
            <path fill="#fff" transform="translate(.96)" d="M0 0h28.961v28.961H0z"/>
        </clipPath>
    </defs>
</svg>
