<?xml version="1.0" encoding="utf-8"?>
<!-- Generator: Adobe Illustrator 27.5.0, SVG Export Plug-In . SVG Version: 6.00 Build 0)  -->
<svg version="1.1" id="Layer_1" xmlns="http://www.w3.org/2000/svg" xmlns:xlink="http://www.w3.org/1999/xlink" x="0px" y="0px"
	 viewBox="0 0 155 155" style="enable-background:new 0 0 155 155;" xml:space="preserve">
<style type="text/css">
	.st0{clip-path:url(#SVGID_00000080903014964293819350000005613542757783643783_);fill:#231F20;}
	.st1{clip-path:url(#SVGID_00000080903014964293819350000005613542757783643783_);fill:#FFFFFF;}
	
		.st2{clip-path:url(#SVGID_00000080903014964293819350000005613542757783643783_);fill-rule:evenodd;clip-rule:evenodd;fill:#FFFFFF;}
	
		.st3{clip-path:url(#SVGID_00000080903014964293819350000005613542757783643783_);fill-rule:evenodd;clip-rule:evenodd;fill:#B9A773;}
</style>
<g>
	<defs>
		<rect id="SVGID_1_" width="155" height="155"/>
	</defs>
	<clipPath id="SVGID_00000176042711114697017470000005930539421396521396_">
		<use xlink:href="#SVGID_1_"  style="overflow:visible;"/>
	</clipPath>
	<path style="clip-path:url(#SVGID_00000176042711114697017470000005930539421396521396_);fill:#231F20;" d="M154.8,77.5
		c0,42.8-34.7,77.5-77.4,77.5C34.7,155,0,120.3,0,77.5C0,34.7,34.7,0,77.4,0C120.2,0,154.8,34.7,154.8,77.5L154.8,77.5z"/>
	<path style="clip-path:url(#SVGID_00000176042711114697017470000005930539421396521396_);fill:#FFFFFF;" d="M19.1,69.2h10.7v6H19.1
		v17.3c0,4,2.9,5.1,4.8,5.1c2.4,0,4.9-0.8,7.6-2.5v6.2c-2.3,1.3-5.9,2.3-8.1,2.3c-7.3,0-11-4.5-11-10.6V75.2H6.5v-0.8l12.5-12.3
		C19.1,62.2,19.1,69.2,19.1,69.2z M63.6,101c-3.1,2-4.4,2.6-6.5,2.6c-2.9,0-4.5-1.1-5.1-3.5c-2.9,2.3-6,3.5-9.1,3.5
		c-5,0-8.3-3.9-8.3-8.3c0-6.7,6.1-8.7,11.5-10.7l5.9-2.1v-1.8c0-4.2-2-5.9-6.1-5.9c-3.7,0-7.4,1.7-10.7,5.6v-7.3
		c2.6-3.1,6.3-4.6,11.2-4.6c6.8,0,12.2,3.5,12.2,11.1v17.4c0,1.3,0.4,1.7,1.3,1.7c0.7,0,2-0.7,3.5-1.8L63.6,101L63.6,101z
		 M52.1,86.3c-5.7,2-10.7,3.9-10.7,7.9c0,2.8,2,4.7,4.8,4.7c2.1,0,4.1-1.1,5.9-2.8V86.3z M88.6,77.9c-3.8-2.5-7.3-3.5-9.8-3.5
		c-2.7,0-4.4,1.3-4.4,3.1c0,1.5,2.3,3.3,8.2,6.8c5.6,3.7,7.6,6,7.6,9.5c0,5.9-4.7,9.9-11.1,9.9c-4.1,0-7.4-0.8-11.7-3.1v-7.2
		c4.4,3,8.3,4.4,11,4.4c2.7-0.2,5-1.4,5-3.8c0-4.7-15.8-7.1-15.8-16.3c0-5.7,4.4-9.2,11.1-9.2c3.2,0,6.4,0.9,9.9,2.8
		C88.6,71.3,88.6,77.9,88.6,77.9z M104.2,69.2h10.7v6h-10.7v17.3c0,4,2.9,5.1,4.8,5.1c2.4,0,4.9-0.8,7.6-2.5v6.2
		c-2.3,1.3-5.9,2.3-8.1,2.3c-7.3,0-11-4.5-11-10.6V75.2h-5.9v-0.8l12.5-12.3C104.2,62.2,104.2,69.2,104.2,69.2z M148.1,99.7
		c-4.1,2.7-7.7,4-13.4,4c-10.5,0-16.4-8.7-16.4-18c0-10.2,6.5-17.2,15.8-17.2c8.9,0,14.7,6.1,14.7,18.6h-23.7
		c1.1,6.7,4.9,10.2,11.3,10.2c4.1,0,7.9-1.5,11.8-4.1V99.7z M142.1,82.7c-0.2-5.1-3.2-8.4-7.9-8.4c-5.1,0-8.2,3-9.1,8.4L142.1,82.7
		L142.1,82.7z M55.7,39.6h-3.9c1.6,1.5,2.4,2.8,2.4,4.5c0,7.7-9.7,5.2-9.7,8.5c0,3.7,11.2-0.8,11.2,6.4c0,3.1-2.9,5-7.7,5
		c-5.3,0-7.5-2.1-7.5-4.6c0-2.2,1.8-3.7,5-4.2v-0.1c-1.8-0.4-2.8-1.3-2.8-2.4c0-1.5,1.4-2.2,3.4-2.8v-0.1c-3.4-1-4.6-3.6-4.6-5.7
		c0-2.9,1.8-6.1,7.3-6.1h6.9V39.6z M48.4,56.2c-2.1,0-6.2,0.3-6.2,3.2c0,2,2.1,3.2,5.9,3.2c3.5,0,5.8-1.3,5.8-3.3
		C53.9,56.8,51.5,56.2,48.4,56.2z M47.8,39.7c-2.6,0-4.5,2-4.5,4.5c0,2.6,1.9,4.7,4.5,4.7c2.5,0,4.6-2.1,4.6-4.6
		C52.4,41.7,50.3,39.7,47.8,39.7z M69.2,41.5c-1.6-1.5-2.5-1.9-3.4-1.9c-1.7,0-3.6,1.8-5.5,4.9v10.8h-1.8V38.1h1.8v4.5h0.1
		c2-3.2,4.1-4.8,6-4.8c1.2,0,2.2,0.5,3.9,2L69.2,41.5L69.2,41.5z M72.2,46.1c-0.5,4.4,2.9,7.8,6.8,7.8c2.3,0,4.2-0.8,6.4-2.6v2.1
		c-2,1.6-4.1,2.3-6.6,2.3c-5,0-8.5-3.8-8.5-9.1c0-5,3.3-8.7,7.9-8.7c3.7,0,7.6,2.6,7.6,8.3C85.7,46.1,72.2,46.1,72.2,46.1z
		 M83.6,44.6c-0.6-3.4-2.5-5-5.4-5c-2.8,0-5,1.9-5.7,5L83.6,44.6L83.6,44.6z M103.1,53.8l-0.3,0.2c-1.7,1.3-2.4,1.6-3.2,1.6
		c-0.8,0-1.1-0.4-1.2-2.1c-1.9,1.5-3.5,2.1-5.4,2.1c-2.6,0-4.6-1.9-4.6-4.4c0-4.5,5-6,10-6.3v-2.2c0-2.3-1.3-3.5-3.8-3.5
		c-1.8,0-3.2,0.7-5.2,2.2v-1.9c2.1-1.3,3.7-1.8,5.5-1.8c2.1,0,5.3,0.9,5.3,4.5v10.7c0,0.7,0.1,0.9,0.4,0.9c0.4,0,1.5-0.8,2.4-1.5
		C103.1,52.3,103.1,53.8,103.1,53.8z M98.4,46.5c-4.5-0.2-8.2,1.8-8.2,4.7c0,1.6,1.5,2.8,3.4,2.8c1.6,0,3-0.6,4.8-2.2
		C98.4,51.9,98.4,46.5,98.4,46.5z M109,38.1h4.8v1.5H109v10.2c0,2.9,0,4,2.6,4c1,0,1.6-0.2,3.1-0.8v1.8c-0.3,0.2-0.9,0.4-1.6,0.6
		c-0.7,0.2-1.4,0.3-2,0.3c-1.9,0-4-1.1-4-3.7V39.6h-4.6v-1.5h4.6V34l1.3-1.6h0.6C109,32.4,109,38.1,109,38.1z"/>
	
		<path style="clip-path:url(#SVGID_00000176042711114697017470000005930539421396521396_);fill-rule:evenodd;clip-rule:evenodd;fill:#FFFFFF;" d="
		M141.4,63.7v-2.4h1.3l1.1,2.4h0.8l-1.2-2.5c0.8-0.1,1.3-0.7,1.3-1.4c0-1-0.7-1.5-2.2-1.5h-1.9v5.3H141.4z M141.4,58.9h1.1
		c1.1,0,1.6,0.3,1.6,1c0,0.8-0.5,1-1.6,1h-1.1C141.4,60.9,141.4,58.9,141.4,58.9z M139.5,64.1c-0.8-0.8-1.2-1.8-1.2-2.9
		c0-1.1,0.4-2.1,1.2-3c0.8-0.8,1.8-1.2,2.9-1.2c2.3,0,4.2,1.8,4.2,4.1c0,0,0,0,0,0c0,1.1-0.4,2.1-1.2,2.9c-0.8,0.8-1.9,1.2-3,1.2
		C141.4,65.3,140.3,64.9,139.5,64.1z M145.7,64.4c0.9-0.9,1.3-2,1.3-3.2c0-1.2-0.5-2.4-1.3-3.3c-0.9-0.9-2-1.4-3.3-1.4
		c-1.2,0-2.4,0.5-3.2,1.3c-0.9,0.9-1.4,2.1-1.4,3.3c0,1.2,0.5,2.4,1.4,3.3c0.9,0.9,2,1.4,3.2,1.4C143.7,65.8,144.8,65.3,145.7,64.4z
		"/>
	
		<path style="clip-path:url(#SVGID_00000176042711114697017470000005930539421396521396_);fill-rule:evenodd;clip-rule:evenodd;fill:#B9A773;" d="
		M77.6,5.3C48.7,5.3,23.8,22.4,12.2,47l3.1,1.4C26.3,25,50,8.7,77.6,8.7c27.6,0,51.4,16.3,62.3,39.7l3.1-1.4
		C131.4,22.4,106.5,5.3,77.6,5.3z M77.6,146.3c-21.1,0-40-9.6-52.6-24.6l-2.6,2.2c13.2,15.8,33.1,25.8,55.2,25.8
		c22.2,0,42-10.1,55.2-25.8l-2.6-2.2C117.6,136.8,98.7,146.3,77.6,146.3z"/>
	
		<path style="clip-path:url(#SVGID_00000176042711114697017470000005930539421396521396_);fill-rule:evenodd;clip-rule:evenodd;fill:#B9A773;" d="
		M77.6,10.9c-26.4,0-49.4,15.7-59.9,38.1l-0.2,0.4l0.7,0.3l0.2-0.4c10.3-22.4,33-37.7,59.2-37.7c26.1,0,48.9,15.3,59.2,37.7l0.2,0.4
		l0.6-0.3l-0.2-0.4C127,26.6,104,10.9,77.6,10.9L77.6,10.9z M77.6,144.1c20.3,0,38-9,50.4-23.3l0.5-0.6l-0.6-0.5l-0.5,0.6
		c-12.1,14.2-29.7,23-49.8,23c-20.1,0-37.7-8.9-49.8-23l-0.5-0.6l-0.6,0.5l0.5,0.6C39.6,135.1,57.3,144.1,77.6,144.1z"/>
</g>
</svg>
